<svg xmlns="http://www.w3.org/2000/svg" viewBox="0 0 446.92 302.14"><defs><style>.cls-1{fill:none;}.cls-2{fill:#e94e2c;}.cls-3{fill:#134959;}</style></defs><g id="Capa_2" data-name="Capa 2"><g id="Capa_1-2" data-name="Capa 1"><path class="cls-1" d="M326.06,252Z"/><path class="cls-1" d="M158.25,187.42h0l-.11,0Z"/><path class="cls-1" d="M351.52,255Z"/><path class="cls-1" d="M158.54,187.29l-.29.13Z"/><path class="cls-1" d="M254.79,134.13a28.67,28.67,0,0,0-28.43,28.43A28,28,0,0,0,254.79,191a28.27,28.27,0,0,0,20-7.63,25.93,25.93,0,0,0,8.4-19.66,29.4,29.4,0,0,0-8.4-20.79A26.33,26.33,0,0,0,254.79,134.13Z"/><path class="cls-1" d="M338.25,254.92Z"/><path class="cls-1" d="M389.32,229.81Z"/><path class="cls-2" d="M293.34,196.72v-33a39.28,39.28,0,0,0-11.26-27.86A36.41,36.41,0,0,0,254.79,124a38.44,38.44,0,0,0-38.54,38.55,38.43,38.43,0,0,0,38.54,38.54,38.29,38.29,0,0,0,28.44-11.83l-.19,7.45q-.29,5.15,5.15,5.15Q293.34,201.87,293.34,196.72Zm-18.51-13.36a28.27,28.27,0,0,1-20,7.63,28.33,28.33,0,0,1-20-48.47,27.39,27.39,0,0,1,20-8.39,26.33,26.33,0,0,1,20,8.78,29.4,29.4,0,0,1,8.4,20.79A25.93,25.93,0,0,1,274.83,183.36Z"/><path class="cls-3" d="M384.73,205.2Z"/><path class="cls-3" d="M428.58,145.94c.39.5.16.19,0,0Z"/><path class="cls-3" d="M436.91,175c0,.25,0,.16,0,0Z"/><path class="cls-2" d="M443.53,152.53A53.16,53.16,0,0,0,429,132.37a51.16,51.16,0,0,0,10.66-31.6,47.29,47.29,0,0,0-16.33-34.88,47.69,47.69,0,0,0-51.86-7.24,52.35,52.35,0,0,0-3.95-27.78A47,47,0,0,0,340.34,5.71,48.37,48.37,0,0,0,304.87,7,47.07,47.07,0,0,0,281.74,28.7c-.34-.8-.69-1.59-1.07-2.38a47.13,47.13,0,0,0-27.82-24,48.59,48.59,0,0,0-35,2.19,47.14,47.14,0,0,0-25.08,28.1c-.41,1.26-.75,2.55-1.05,3.86a47.76,47.76,0,0,0-56.3,29,47,47,0,0,0,1,37c.59,1.3,1.27,2.58,2,3.85a50.69,50.69,0,0,0-20.92,3,47.68,47.68,0,0,0-1.12,89,51.3,51.3,0,0,0,26.69,3,3.38,3.38,0,0,0,.8-.24,60.94,60.94,0,0,0,10-2.12,68.93,68.93,0,0,0,21.81-10.65,62.87,62.87,0,0,0,12.81-12.79c1.51-2,.32-5.2-1.67-6.37-2.38-1.39-4.86-.35-6.37,1.67l-.23.31-.5.63c-.35.42-.7.84-1.06,1.25-.8.93-1.64,1.83-2.5,2.69a53,53,0,0,1-5,4.4l-.89.67c-.4.28-.79.57-1.2.84-.89.62-1.81,1.21-2.73,1.78q-2.57,1.56-5.27,2.88c-.82.4-1.65.77-2.48,1.15l-.06,0-.29.13-.14.06.11,0-1.4.56c-1.52.58-3.06,1.12-4.62,1.6a70,70,0,0,1-7.26,1.81c-.7.13-1.4.23-2.1.34h-.09l-.16,0-.3-.06a6.84,6.84,0,0,0-1.28,0c.26,0,.39-.06,0,0l-1.33.13c-1.41.11-2.84.15-4.26.14-1.88,0-3.74-.17-5.6-.37l-.9-.13c-.52-.08-1-.17-1.55-.27-1.29-.25-2.56-.56-3.83-.91s-2.38-.72-3.54-1.15l-.85-.32-.21-.08-.1,0c-.72-.31-1.43-.65-2.12-1a38.62,38.62,0,0,1-3.59-2.05,28.35,28.35,0,0,1-3.13-2.26,42.9,42.9,0,0,1-5.93-6.12l-.18-.25-.54-.74c-.4-.56-.78-1.13-1.15-1.71-.77-1.22-1.48-2.47-2.12-3.75-.27-.54-.52-1.08-.77-1.63L99.2,169c-.13-.3-.25-.61-.37-.93a41,41,0,0,1-1.32-4c-.31-1.14-.58-2.3-.8-3.46-.07-.36-.13-.73-.19-1.09,0-.05,0-.21,0-.36s-.1-.78-.1-.76c0-.37-.07-.73-.1-1.1a43.2,43.2,0,0,1,.11-8c0-.05,0-.19,0-.32s.12-.82.11-.8c.1-.58.21-1.17.32-1.75.27-1.31.6-2.61,1-3.89s.79-2.39,1.26-3.56c0-.1.42-.94.51-1.14.33-.69.67-1.36,1-2,.65-1.21,1.37-2.39,2.13-3.54.35-.51.71-1,1.07-1.52l.22-.29.75-.93a35.18,35.18,0,0,1,12.76-9.91l1.06-.49.21-.1L119,119c.72-.29,1.45-.56,2.18-.81a45.89,45.89,0,0,1,4.44-1.28c.75-.17,1.5-.32,2.25-.46l1.13-.19.19,0h.1c1.5-.18,3-.29,4.52-.33s3,0,4.48.11c.73.05,1.47.12,2.2.21h.1l.13,0,1.08.18a41.29,41.29,0,0,1,5.37,1.33q1.69,1.67,3.52,3.14c.6.5,1.21,1,1.84,1.45,2.13,1.54,5.44.36,6.67-1.75a4.68,4.68,0,0,0-.44-5.41,6.87,6.87,0,0,0-.88-.91c.15.12.23.17,0,0l-1-.82c-1-.87-2-1.8-3-2.76-1.28-1.31-2.47-2.69-3.63-4.1l0,0-.37-.5c-.32-.44-.64-.88-.95-1.33-.69-1-1.34-2-2-3.08s-1.12-2-1.63-3.05c-.27-.56-.53-1.12-.77-1.69,0-.11-.49-1.26-.58-1.49a39.61,39.61,0,0,1-2-7.8c0-.16-.06-.53-.07-.65,0-.32-.06-.65-.08-1-.06-.74-.09-1.48-.1-2.22a41.17,41.17,0,0,1,.13-4.3q.08-.85.18-1.71c0-.15.15-1,.19-1.18a41.35,41.35,0,0,1,1-4.27c.34-1.18.73-2.35,1.17-3.49.12-.3.23-.59.35-.88l.07-.15c.31-.65.6-1.3.93-1.93.58-1.15,1.22-2.27,1.9-3.35.3-.48.61-1,.94-1.43l.61-.87.51-.68.42-.53.54-.65c.37-.43.75-.85,1.13-1.27q1.45-1.56,3-3c.43-.38.86-.75,1.3-1.11l.59-.46.28-.21c1.1-.79,2.22-1.55,3.38-2.25s2.25-1.27,3.41-1.83c.43-.21.88-.41,1.32-.6l.49-.2,1.22-.46a45.82,45.82,0,0,1,7.89-2l.22,0,.72-.08c.68-.07,1.35-.13,2-.16a38.62,38.62,0,0,1,4.69,0c.75,0,1.5.11,2.24.19l.18,0,.24,0,1,.17a43.36,43.36,0,0,1,4.5,1.09c.77.24,1.53.49,2.29.77l1.12.43.29.1a3.11,3.11,0,0,0,.31.15c1.44.68,2.86,1.38,4.23,2.19a44.56,44.56,0,0,1,3.94,2.59c-.05-.05.48.36.68.51l.55.45c.66.55,1.3,1.11,1.93,1.69a44.13,44.13,0,0,1,3.38,3.46c.51.57,1,1.15,1.47,1.74l.12.16c.25.34.5.67.74,1a44.07,44.07,0,0,1,4.48,8,3.58,3.58,0,0,0,.34.57c1.32,1.92,4.44,2.29,6.33,1.18,2.51-1.46,2.79-4.24,1.75-6.67a43.79,43.79,0,0,0-2.08-4.24A51,51,0,0,0,200.88,40a35.81,35.81,0,0,1,6.91-15.46.44.44,0,0,0,.07-.09l.16-.19c.2-.23.39-.47.59-.71.39-.46.8-.91,1.21-1.36q1.45-1.57,3.05-3c.5-.45,1-.87,1.53-1.3l.24-.19.53-.39c1.07-.77,2.17-1.5,3.3-2.17s2.28-1.28,3.46-1.84c.2-.09.89-.4,1.06-.49.58-.24,1.18-.47,1.78-.68a43.2,43.2,0,0,1,7.51-2l.49-.07.56-.08c.64-.06,1.28-.13,1.93-.17,1.29-.08,2.59-.11,3.88-.08s2.45.11,3.67.24l.62.08.45.07c.72.12,1.43.26,2.15.41a35.14,35.14,0,0,1,13.74,5.9,36.94,36.94,0,0,1,10.42,11q1.17,1.95,2.15,4c.13.27.26.54.38.82s.13.28.19.43l0,.06c.28.7.54,1.4.79,2.1a50.76,50.76,0,0,1,2.09,8.59v0c.05.44.09.87.13,1.31,0,.17,0,.34,0,.52a48.78,48.78,0,0,0-33.34,6.43,45.81,45.81,0,0,0-10.36,8.55A47.36,47.36,0,0,0,221,82.54a51.92,51.92,0,0,0-.07,19.21,46.8,46.8,0,0,0,2.68,9.87A4.88,4.88,0,0,0,233,109.2a4.67,4.67,0,0,0-.31-1.25c-.27-.63-.49-1.29-.71-1.94s-.4-1.28-.58-1.93a1.36,1.36,0,0,0-.07-.22c-.13-.41-.2-.87-.29-1.28a51.14,51.14,0,0,1-1-6.41c-.11-1.17-.18-2.35-.2-3.53,0-.16,0-1.31,0-1.42,0-.65.05-1.31.1-2A35.78,35.78,0,0,1,235,72.79l.06-.1.14-.21c.17-.26.33-.52.5-.77.34-.51.68-1,1-1.5.84-1.15,1.74-2.26,2.69-3.32.45-.5.91-1,1.37-1.46l.22-.22.48-.45c1-.89,2-1.74,3-2.53s2.11-1.54,3.22-2.24l1-.6c.56-.3,1.12-.6,1.69-.89a44.67,44.67,0,0,1,7.23-2.8l.49-.13.54-.14c.63-.14,1.26-.28,1.9-.39,1.27-.24,2.56-.41,3.85-.53s2.45-.18,3.67-.18h.62l.46,0c.73,0,1.45.09,2.18.16a35.1,35.1,0,0,1,14.33,4.27,37.09,37.09,0,0,1,11.62,9.74,45.09,45.09,0,0,1,2.6,3.72c.16.26.32.51.47.77l.24.41,0,.06c.36.66.7,1.32,1,2a50.46,50.46,0,0,1,3.07,8.28v0c.1.42.2.85.29,1.28.14.7.28,1.42.39,2.13.23,1.41.39,2.84.48,4.26.05.71.08,1.41.09,2.12,0,.28,0,.56,0,.84v.07c0,.1,0,.19,0,.29-.07,1.44-.19,2.87-.39,4.3a4.3,4.3,0,0,0,0,1l-.18.4A51.3,51.3,0,0,0,304,137.26a47.49,47.49,0,0,0,26.26,28.05,48.81,48.81,0,0,0,35.55.94,46.87,46.87,0,0,0,26.82-25.12,53.52,53.52,0,0,0,4.54-21.52c0-1.07-.06-2.13-.16-3.17a4.92,4.92,0,0,0-5.41-4.28,5.11,5.11,0,0,0-3.38,2.07,4.83,4.83,0,0,0-.8,1.84,4.91,4.91,0,0,0-.1,1.49c.05.59.07,1.19.08,1.78V120c0,.7-.06,1.39-.11,2.09a51,51,0,0,1-.69,5.5c-.17,1-.38,1.94-.61,2.9-.13.54-.27,1.07-.41,1.61v.05c0-.05,0-.1.05-.17l-.06.18c-.05.19-.15.51-.08.27l-.21.66a43.94,43.94,0,0,1-2.86,6.84c-.3.58-.62,1.15-.94,1.72a.41.41,0,0,0-.06.11l-.11.15c-.16.25-.32.51-.49.76a40.82,40.82,0,0,1-2.48,3.35,29.9,29.9,0,0,1-5.8,5.54c-1,.79-2.06,1.52-3.15,2.21l-.95.59-.35.2-.69.37c-.39.21-.79.41-1.19.6a44,44,0,0,1-7.38,2.76l-.08,0h.09l-.12,0-.24.06-.49.11c-.64.14-1.27.26-1.92.37a40,40,0,0,1-4.07.51c-.65,0-1.3.08-1.94.1l-1.4,0c-1.18,0-2.37-.11-3.55-.25s-2.57-.34-3.84-.6c-.57-.12-1.13-.25-1.69-.39L338.5,158l-.12,0-.13,0a46.42,46.42,0,0,1-7.47-3.12c-.51-.27-1-.56-1.52-.85l-1-.66a43.23,43.23,0,0,1-3.61-2.68c-1-.83-2-1.71-2.89-2.61l-.08-.09h0l-.83-.9c-.58-.64-1.13-1.3-1.67-2a31.89,31.89,0,0,1-4.37-7,44.81,44.81,0,0,1-1.82-4.57c-.24-.72-.45-1.45-.65-2.18-.05-.18-.12-.45-.14-.55-.11-.47-.21-.94-.31-1.42a45.25,45.25,0,0,1-.68-4.77c-.08-.87-.14-1.75-.17-2.63,0-.31,0-.63,0-.95V120a45.43,45.43,0,0,1,1.14-9c.15-.66.32-1.33.51-2,0-.16.12-.42.15-.52l.36-1.06A45,45,0,0,1,315,103a4.33,4.33,0,0,0,.33-1,4.74,4.74,0,0,0,0-1.72,51.4,51.4,0,0,0-7.71-34,43.13,43.13,0,0,0-2.71-3.82,46.92,46.92,0,0,0-18.63-14c.06-.94.16-1.88.27-2.82.05-.25.19-1.17.21-1.33.13-.72.28-1.45.44-2.17.29-1.27.64-2.54,1-3.78.22-.69.46-1.37.71-2,.11-.3.23-.59.35-.89s.2-.45.31-.67a42.8,42.8,0,0,1,2-3.85c.37-.61.75-1.2,1.15-1.79q.38-.55.78-1.11l.48-.62a41.77,41.77,0,0,1,5.73-5.86l1-.79q.71-.54,1.44-1.05c1.17-.8,2.37-1.54,3.61-2.22s2.22-1.15,3.36-1.66l0,0h0l1-.4c.68-.26,1.38-.5,2.07-.72,1.11-.35,2.24-.66,3.38-.93.64-.15,1.28-.28,1.92-.4l1.08-.18.19,0h0a47.85,47.85,0,0,1,7.85-.25c.65,0,1.31.09,2,.16l.71.09.17,0c1.31.22,2.6.47,3.89.8s2.56.71,3.82,1.15c.56.2,1.12.42,1.67.64.89.34.26.11.08,0,.41.18.82.36,1.23.56a46.34,46.34,0,0,1,7.06,4.24,3.36,3.36,0,0,1,.31.24l.57.45c.56.47,1.11.94,1.64,1.44a40.4,40.4,0,0,1,3.16,3.25q.56.64,1.08,1.32c.08.09.17.22.2.26l.55.76a42.27,42.27,0,0,1,2.33,3.73c.37.67.72,1.35,1.06,2,.17.34.33.69.49,1,0,0,.18.41.27.63l.29.72c.14.36.27.71.4,1.07.25.71.48,1.43.7,2.15.43,1.44.79,2.9,1.08,4.37.15.73.27,1.47.38,2.2,0,0,0,.07,0,.1v.15l.12,1.1a47,47,0,0,1,0,8.72c0,.33-.07.66-.11,1l0,.24c-.11.7-.23,1.39-.38,2.08-.29,1.42-.66,2.82-1.09,4.21a3.93,3.93,0,0,0-.17,1.08,4.33,4.33,0,0,0,.13,1.24,44.13,44.13,0,0,0-3.29,3.27c-5.23,5.77-9.78,13.1-11.81,20.7a4.93,4.93,0,0,0,3.41,6,5,5,0,0,0,5.46-2.2,4.83,4.83,0,0,0,.54-1.2c.14-.54.32-1.07.5-1.59s.32-.91.5-1.36c.06-.17.13-.33.19-.49l0,.07.09-.19.14-.35a.6.6,0,0,1,.08-.16,52,52,0,0,1,5.59-9.64s.17-.21.29-.38l.32-.4c.32-.4.65-.79,1-1.18.82-1,1.69-1.87,2.6-2.75s1.83-1.7,2.8-2.5l.28-.22.61-.46c.6-.44,1.21-.85,1.83-1.25a40.69,40.69,0,0,1,3.57-2c.57-.28,1.14-.55,1.72-.81.89-.41.34-.14.14-.06.43-.18.86-.34,1.29-.5a43.57,43.57,0,0,1,8-2.12l.34,0,.76-.09c.58-.07,1.17-.11,1.75-.15q2.18-.13,4.35-.06c1.23,0,2.44.18,3.66.3h0l.19,0,.85.15c.7.12,1.4.27,2.1.43,1.26.29,2.5.63,3.72,1q.81.27,1.62.57c.26.1.53.21.8.3l.24.09.17.08a45.44,45.44,0,0,1,6.93,3.84c.53.37,1.06.74,1.58,1.13.75.55.18.15,0,0l.67.55a42.24,42.24,0,0,1,3.2,2.93q1.3,1.32,2.49,2.76l.61.75.11.17c.44.6.87,1.2,1.27,1.82.75,1.12,1.43,2.28,2.07,3.47.28.54.56,1.08.82,1.63l.48,1c.05.1.15.34.21.49a40.54,40.54,0,0,1,1.48,4.44c.37,1.37.8,3.49.94,4.44a44.6,44.6,0,0,1,0,10,1.36,1.36,0,0,1,0,.21q-.11.73-.24,1.47c-.15.82-.32,1.63-.51,2.44a47.53,47.53,0,0,1-1.49,5c-.14.39-.28.77-.43,1.15,0,.1-.26.65-.34.83-.3.68-.61,1.36-.94,2a47.76,47.76,0,0,1-2.37,4.18c-.42.67-.86,1.32-1.32,2l-.56.76c-.09.13-.15.2-.18.26l-.2.22a50,50,0,0,1-3.41,3.71,4.41,4.41,0,0,0-.72.95,5,5,0,0,0,.72,5.95,4.78,4.78,0,0,0,2.73,1.34,4.84,4.84,0,0,0,1.37,0,6.79,6.79,0,0,0,.84.77c-2.05-1.58.05.1.53.53,1,.92,2,1.89,2.9,2.89.56.6,1.1,1.22,1.63,1.84.31.37.6.74.9,1.11l0,0,.43.57a48.86,48.86,0,0,1,3.62,5.69c.59,1.08,1.12,2.2,1.64,3.32a2.17,2.17,0,0,1,.1.21l.24.6c.26.68.51,1.37.74,2.06.43,1.29.79,2.61,1.09,3.94.15.69.29,1.38.41,2.07,0,.13.08.5.1.65,0,.31.07.62.1.93a44.68,44.68,0,0,1-.1,8.73c0,.05,0,.13,0,.22s-.07.46-.11.69c-.11.66-.23,1.31-.37,2-.3,1.35-.65,2.7-1.08,4-.19.62-.41,1.24-.63,1.85-.06.16-.51,1.25-.52,1.3-.48,1.09-1,2.17-1.58,3.22s-1.28,2.22-2,3.29c-.36.53-.73,1.05-1.11,1.57l-.23.31-.58.72a43.51,43.51,0,0,1-5.54,5.57c-.16.14-.8.64-.9.72-.44.33-.88.66-1.34,1-1.11.77-2.26,1.48-3.44,2.15s-2.29,1.18-3.46,1.73l-.24.11-.59.23c-.67.26-1.35.51-2,.73-1.25.42-2.51.77-3.79,1.07-.57.13-1.15.25-1.73.36l-1.09.19-.5.08a43.49,43.49,0,0,1-8.46.17c-.42,0-.83-.08-1.25-.12l-.28,0c-.7-.11-1.4-.23-2.09-.37a43.51,43.51,0,0,1-4.48-1.2c-.76-.25-1.52-.53-2.27-.82l-.25-.09-1.23-.55a47.07,47.07,0,0,1-4.2-2.26c-1.22-.75-3-2-3.77-2.57s-2.37-2-3.39-3a39.18,39.18,0,0,1-5.41-6.35,43.32,43.32,0,0,1-2.32-3.8c-.38-.7-.74-1.42-1.08-2.15l-.36-.78,0-.07c-.07-.18-.15-.37-.22-.56a6.59,6.59,0,0,0-.87-1.53,4.7,4.7,0,0,0-5.13-1.87c-2.34.64-4.38,3.53-3.41,6a50.87,50.87,0,0,0,25.7,27.55,47.85,47.85,0,0,0,13.62,3.93c-.05.49-.1,1-.16,1.48,0,.06,0,.28-.07.45s-.12.7-.12.69a41.33,41.33,0,0,1-1.92,6.83c-.37,1-.78,1.91-1.2,2.86l0,.1c-.13.24-.25.48-.37.72-.31.59-.64,1.17-1,1.75a46.22,46.22,0,0,1-3.94,5.69q-.46.57-1,1.14l-.85.92c-.84.87-1.71,1.72-2.62,2.54s-1.73,1.51-2.64,2.22l-1.48,1.12c-.15.11-1,.7-1.19.83a54.89,54.89,0,0,1-6.18,3.49c-1.08.52-2.19,1-3.31,1.47l-1.24.48c-.59.21-1.19.41-1.79.6a61.59,61.59,0,0,1-7.52,1.85l-2,.32-.92.12-.14,0c-1.38.13-2.76.23-4.15.27a66.83,66.83,0,0,1-8.37-.27l-.31,0-.49-.07c-.67-.09-1.34-.19-2-.31-1.33-.23-2.64-.5-4-.82s-2.4-.63-3.59-1l-1.87-.62-.2-.07-1-.38a57.33,57.33,0,0,1-6.7-3.21c-1-.59-2-1.21-3-1.85-.19-.13-.65-.44-.79-.55-.57-.4-1.13-.82-1.68-1.25a49.83,49.83,0,0,1-5.44-4.9c-.15-.15-.74-.81-.84-.9-.38-.44-.75-.89-1.11-1.34-.85-1.05-1.64-2.14-2.38-3.25s-1.36-2.13-2-3.23l-.42-.78s-.28-.56-.36-.73c-.2-.43-.4-.86-.59-1.3a42.29,42.29,0,0,1-2.41-7.61c-.1-.5-.19-1-.28-1.5,0,.1-.15-1.11-.18-1.41a41.38,41.38,0,0,1-.23-4.32c0-2.55-2.57-5-5.62-4.87s-5.63,2.14-5.62,4.87c.12,21.63,15.92,41,39.24,48.46,22.87,7.33,49.95,1,65.46-15.36a48.81,48.81,0,0,0,13.7-29.2,48.59,48.59,0,0,0,14.09-3.69C441.26,203.84,453.24,175.91,443.53,152.53ZM326.06,252Zm12.19,2.95Zm13.27,0Zm37.8-25.14ZM175.09,44.92ZM211,60.59Zm150.93-3.44c0-.45,0-.3,0,0Zm67.72,49.39c-.07.66,0,.21,0,0Zm-1.05,39.4c.16.19.39.5,0,0ZM436.91,175c0,.16,0,.25,0,0ZM384.73,205.2Z"/><path class="cls-3" d="M355.82,89.22l0-.07.05-.12Z"/><path class="cls-3" d="M356.13,88.52a.6.6,0,0,0-.08.16l-.14.35c.07-.15.13-.32.2-.46A.08.08,0,0,1,356.13,88.52Z"/><path class="cls-3" d="M429.63,106.54c0,.21-.07.66,0,0Z"/><path class="cls-2" d="M356.13,88.52a.08.08,0,0,0,0,0c-.07.14-.13.31-.2.46l-.05.12C356.33,88.36,356.25,88.31,356.13,88.52Z"/><path class="cls-3" d="M361.91,57.15c0-.3,0-.45,0,0Z"/><path class="cls-3" d="M385.6,132c0,.07,0,.12-.05.17h0Z"/><path class="cls-3" d="M358.81,158.27h-.12Z"/><path class="cls-3" d="M385.54,132.13a2.76,2.76,0,0,1-.08.27C385.39,132.64,385.49,132.32,385.54,132.13Z"/><path class="cls-3" d="M358.69,158.29l-.24.06Z"/><path class="cls-2" d="M358.45,158.35l.24-.06h0Z"/><path class="cls-2" d="M385.54,132.13h0l-.09.28A2.76,2.76,0,0,0,385.54,132.13Z"/><path class="cls-2" d="M208.76,105c0-4.39-2.09-6.49-6.29-6.49s-6.3,2.1-6.3,6.49v.19c0,4.39,2.1,6.49,6.3,6.49s6.29-2.1,6.29-6.49Z"/><rect class="cls-3" x="0.37" y="218.86" width="1.58" height="26.69"/><rect class="cls-3" y="210.18" width="2.32" height="2.76"/><path class="cls-3" d="M23.67,218.34A11.56,11.56,0,0,0,13.22,225l-.28-6.16H11.69v26.69h1.58V230a10.31,10.31,0,0,1,10.11-10.18c5.72,0,9.18,3.84,9.18,10.2v15.52h1.58V229.76C34.14,222.88,30.11,218.34,23.67,218.34Z"/><path class="cls-3" d="M64.25,230v15.52h1.58V229.76c0-6.88-4-11.42-10.47-11.42A11.57,11.57,0,0,0,44.9,225l-.28-6.16H43.38v26.69H45V230a10.3,10.3,0,0,1,10.1-10.18C60.78,219.83,64.25,223.67,64.25,230Z"/><path class="cls-3" d="M100.47,232.21a13.89,13.89,0,1,0-13.89,13.86A13.54,13.54,0,0,0,100.47,232.21ZM86.58,244.53a12.32,12.32,0,1,1,12.28-12.32A12,12,0,0,1,86.58,244.53Z"/><polygon class="cls-3" points="127.3 218.86 116.39 243.3 105.26 218.86 103.59 218.86 115.73 245.55 117.06 245.55 128.94 218.86 127.3 218.86"/><path class="cls-3" d="M193,237.6h-1.64a11.56,11.56,0,0,1-10.87,6.93,12.32,12.32,0,0,1,0-24.64,11.42,11.42,0,0,1,10.81,6.86h1.61a12.82,12.82,0,0,0-12.42-8.41,13.87,13.87,0,0,0,0,27.73A13,13,0,0,0,193,237.6Z"/><rect class="cls-3" x="199.41" y="210.18" width="2.32" height="2.76"/><rect class="cls-3" x="199.78" y="218.86" width="1.58" height="26.69"/><path class="cls-3" d="M222.61,218.34a13.87,13.87,0,1,0,13.89,13.87A13.52,13.52,0,0,0,222.61,218.34Zm0,26.19a12.32,12.32,0,1,1,12.29-12.32A12,12,0,0,1,222.61,244.53Z"/><path class="cls-3" d="M255.86,218.34A11.57,11.57,0,0,0,245.4,225l-.28-6.16h-1.25v26.69h1.58V230a10.31,10.31,0,0,1,10.11-10.18c5.72,0,9.18,3.84,9.18,10.2v15.52h1.58V229.76C266.32,222.88,262.29,218.34,255.86,218.34Z"/><path class="cls-3" d="M79.68,281.57a13.09,13.09,0,0,0-12.18-7.49,13.86,13.86,0,0,0,0,27.72,13.11,13.11,0,0,0,12.18-7.48l.17,7h1.39V274.6H79.89Zm-12.1,18.69a12.32,12.32,0,0,1,0-24.64c7,0,12,5.2,12,12.32S74.55,300.26,67.58,300.26Z"/><path class="cls-3" d="M102.94,274.08a11.58,11.58,0,0,0-10.46,6.67l-.28-6.15H91v26.68h1.59V285.74a10.3,10.3,0,0,1,10.1-10.18c5.72,0,9.18,3.84,9.18,10.2v15.52h1.59V285.49C113.41,278.61,109.38,274.08,102.94,274.08Z"/><path class="cls-3" d="M146.07,281.57a13.1,13.1,0,0,0-12.19-7.49c-7.76,0-13.61,6-13.61,13.86a13.45,13.45,0,0,0,13.61,13.86,13.09,13.09,0,0,0,12.18-7.48l.18,7h1.38V274.6h-1.34ZM134,300.26a12.32,12.32,0,0,1,0-24.64c7,0,12.05,5.2,12.05,12.32S140.94,300.26,134,300.26Z"/><path class="cls-3" d="M158,224.17l-.05,1.67a13.11,13.11,0,0,0-12.19-7.5c-7.76,0-13.61,6-13.61,13.87a13.45,13.45,0,0,0,13.61,13.86,13.1,13.1,0,0,0,12.18-7.48l.06,2.2v61.35h1.58V217.26H158Zm-12.15,20.36a12.32,12.32,0,0,1,0-24.64c7,0,12.05,5.2,12.05,12.32S152.78,244.53,145.81,244.53Z"/><rect class="cls-3" x="222.24" y="203.78" width="2.32" height="9.87"/><rect class="cls-3" x="168.66" y="275.07" width="1.58" height="26.22"/><rect class="cls-3" x="167.98" y="258.83" width="2.32" height="9.87"/><path class="cls-3" d="M183.4,293.12V276h9.69v-1.39H183.4v-7.9h-1.58v7.9h-6.15V276h6.15v17.14c0,5.05,3,8.12,8,8.12h3.5v-1.51H190C185.79,299.79,183.4,297.33,183.4,293.12Z"/><rect class="cls-3" x="198.91" y="274.6" width="1.58" height="26.69"/><rect class="cls-3" x="198.54" y="265.91" width="2.32" height="2.76"/><path class="cls-3" d="M221.56,300.26a12.32,12.32,0,0,1,0-24.64,11.42,11.42,0,0,1,10.81,6.86H234a12.81,12.81,0,0,0-12.42-8.4,13.86,13.86,0,0,0,0,27.72,13,13,0,0,0,12.51-8.47h-1.64A11.56,11.56,0,0,1,221.56,300.26Z"/><path class="cls-3" d="M264.26,281.57a13.1,13.1,0,0,0-12.19-7.49c-7.76,0-13.61,6-13.61,13.86a13.45,13.45,0,0,0,13.61,13.86,13.1,13.1,0,0,0,12.18-7.48l.18,7h1.38V274.6h-1.34Zm-12.1,18.69a12.32,12.32,0,0,1,0-24.64c7,0,12,5.2,12,12.32S259.13,300.26,252.16,300.26Z"/><path class="cls-3" d="M175.09,44.92Z"/><path class="cls-3" d="M211,60.59c.1.14.07.09,0,0Z"/><path class="cls-2" d="M158.25,187.42l.29-.13-.32.14Z"/><path class="cls-2" d="M202.06,120.7a4.8,4.8,0,0,0-5,4.86v71.18a5,5,0,0,0,9.92,0V125.56A4.8,4.8,0,0,0,202.06,120.7Z"/></g></g></svg>