<?xml version="1.0" standalone="no"?>
<!DOCTYPE svg PUBLIC "-//W3C//DTD SVG 20010904//EN"
 "http://www.w3.org/TR/2001/REC-SVG-20010904/DTD/svg10.dtd">
<svg version="1.0" xmlns="http://www.w3.org/2000/svg"
 width="182.000000pt" height="132.000000pt" viewBox="0 0 182.000000 132.000000"
 preserveAspectRatio="xMidYMid meet">

<g transform="translate(0.000000,132.000000) scale(0.100000,-0.100000)"
fill="#000000" stroke="none">
<path d="M698 1289 c-50 -14 -122 -80 -142 -129 -14 -36 -18 -39 -45 -34 -50
10 -130 -15 -173 -54 -62 -56 -81 -102 -76 -186 3 -39 8 -79 12 -88 7 -15 3
-18 -28 -18 -114 0 -209 -103 -209 -225 0 -171 161 -271 340 -211 50 16 153
96 153 117 0 25 -32 18 -62 -12 -92 -92 -246 -106 -332 -30 -73 64 -72 207 1
273 50 46 143 61 193 32 15 -10 36 -14 45 -10 19 7 19 7 -39 81 -103 129 30
324 192 283 44 -11 113 -67 138 -112 6 -12 15 -16 22 -12 26 16 11 51 -44 104
-61 59 -64 74 -23 126 48 61 159 87 225 53 38 -20 80 -65 93 -100 19 -48 14
-57 -26 -57 -68 0 -114 -20 -163 -69 -63 -63 -83 -138 -59 -223 7 -28 15 -38
30 -38 19 0 20 4 13 43 -24 127 38 226 152 243 117 17 232 -99 209 -210 -14
-73 -17 -156 -5 -192 7 -20 31 -57 53 -81 132 -143 379 -53 389 143 3 43 1 49
-17 49 -16 0 -21 -9 -26 -45 -15 -127 -119 -200 -237 -165 -85 26 -140 111
-128 198 24 171 17 209 -53 278 -25 25 -53 48 -61 51 -12 4 -12 11 -1 49 25
82 109 136 197 126 140 -15 213 -185 126 -293 -17 -22 -34 -54 -38 -72 -6 -28
-4 -32 14 -32 12 0 24 11 32 30 44 106 155 148 258 99 105 -51 131 -184 56
-286 l-24 -32 43 -44 c52 -51 70 -106 55 -169 -26 -117 -154 -181 -257 -129
-36 19 -83 66 -107 106 -11 20 -34 13 -34 -11 0 -31 59 -100 108 -127 27 -15
57 -27 67 -27 23 0 13 -42 -23 -94 -94 -137 -333 -121 -407 27 -14 28 -25 61
-25 73 0 12 -6 24 -12 26 -68 25 -42 -99 37 -178 83 -83 210 -108 329 -64 69
26 141 100 158 163 10 40 15 45 54 55 155 42 212 254 100 372 l-23 25 21 40
c26 51 33 149 14 195 -46 108 -155 162 -279 137 l-37 -7 -4 59 c-8 113 -89
192 -203 199 -83 5 -128 -11 -183 -65 l-44 -45 -16 24 c-23 33 -62 68 -96 85
-37 19 -121 25 -168 12z"/>
<path d="M572 793 c2 -20 8 -28 23 -28 31 0 28 49 -3 53 -20 3 -23 0 -20 -25z"/>
<path d="M577 703 c-4 -3 -7 -88 -7 -189 0 -147 3 -183 14 -187 8 -3 17 -3 20
0 3 4 6 91 6 195 0 150 -3 188 -13 188 -8 0 -17 -3 -20 -7z"/>
<path d="M785 685 c-114 -40 -157 -184 -85 -284 54 -74 163 -94 246 -46 l43
25 3 -27 c2 -17 9 -28 18 -28 12 0 16 19 18 100 2 55 0 115 -3 133 -9 50 -76
117 -130 131 -54 14 -61 13 -110 -4z m135 -57 c46 -32 72 -84 66 -131 -16
-133 -178 -170 -254 -57 -44 66 -12 169 63 200 38 16 91 11 125 -12z"/>
</g>
</svg>
