<svg xmlns="http://www.w3.org/2000/svg" viewBox="0 0 362.48 386.25"><defs><style>.cls-1{fill:#047634;}.cls-2{fill:#007484;}.cls-3{fill:#006586;}.cls-4{fill:#008bbd;}.cls-5{fill:#006d99;}.cls-6{fill:#008ea5;}.cls-7{fill:#109cd5;}.cls-8{fill:#065c98;}.cls-9{fill:#007fb6;}.cls-10{fill:#007992;}.cls-11{fill:#008a38;}.cls-12{fill:#007b35;}.cls-13{fill:#378c35;}.cls-14{fill:#046b31;}.cls-15{fill:#008337;}.cls-16{fill:#76ae2c;}.cls-17{fill:#459b35;}.cls-18{fill:#2c9f37;}.cls-19{fill:#009439;}.cls-20{fill:#65a930;}.cls-21{fill:#007e36;}.cls-22{fill:#1a9c38;}.cls-23{fill:#42a235;}.cls-24{fill:#7db329;}.cls-25{fill:#34a344;}.cls-26{fill:#97bc1f;}.cls-27{fill:#0099a5;}.cls-28{fill:#1a97a1;}.cls-29{fill:#008e98;}.cls-30{fill:#00858f;}.cls-31{fill:#007d80;}.cls-32{fill:#00a2af;}.cls-33{fill:#0ea1ae;}.cls-34{fill:#009ca7;}.cls-35{fill:#00adbb;}.cls-36{fill:#00909a;}.cls-37{isolation:isolate;}.cls-38{fill:#4c4649;}</style></defs><g id="Capa_2" data-name="Capa 2"><g id="Graphics"><polygon class="cls-1" points="1.8 107.7 10.84 140.94 27.16 69.12 1.8 107.7"/><polygon class="cls-2" points="342.3 121.85 286.27 156.9 314.91 173.97 342.3 121.85"/><polygon class="cls-3" points="284.47 159.19 272.9 210.56 313.02 176.2 284.47 159.19"/><polygon class="cls-4" points="234.37 217.96 269.36 213.18 280.79 162.42 234.37 217.96"/><polygon class="cls-5" points="212.96 177.21 231.24 217.21 279.49 159.49 212.96 177.21"/><polygon class="cls-6" points="154.66 160.16 98.11 173.14 137.46 202.66 154.66 160.16"/><polygon class="cls-7" points="208.24 176.86 160.22 160.73 183.59 200.61 208.24 176.86"/><polygon class="cls-8" points="234.67 220.82 274.56 249.21 269.34 216.09 234.67 220.82"/><polygon class="cls-9" points="228.15 217.38 210.48 178.7 185.95 202.34 228.15 217.38"/><polygon class="cls-10" points="140.27 203.39 180.83 201.58 157.27 161.39 140.27 203.39"/><path class="cls-11" d="M61.23,109.17,31,65.2,13.1,144l43-25.26a11.45,11.45,0,0,1,5.14-9.53Z"/><path class="cls-12" d="M95.65,74.4,33.45,63.68l30.38,44.19a11.6,11.6,0,0,1,6.1-.38L95.65,74.4Z"/><polygon class="cls-13" points="96.55 71.63 88.74 17.15 33.74 60.81 96.55 71.63"/><path class="cls-14" d="M124.66,121.43,98.09,76,72.79,108.5a11.51,11.51,0,0,1,5.75,6.81l43,9a11.47,11.47,0,0,1,3.09-2.84Z"/><path class="cls-15" d="M151.2,47.75,100.26,74l27,46.24a11.58,11.58,0,0,1,3.31-.53L151.2,47.75Z"/><polygon class="cls-16" points="263.1 53.67 299.56 36.69 227.65 7.14 263.1 53.67"/><polygon class="cls-17" points="150.27 44.99 91.61 16.92 99.39 71.19 150.27 44.99"/><polygon class="cls-18" points="268 54.57 324.37 60.34 302.83 38.34 268 54.57"/><path class="cls-19" d="M186,88,154.12,48l-20.63,72a11.29,11.29,0,0,1,3.74,1.67l44.32-24.87A11.47,11.47,0,0,1,186,88Z"/><polygon class="cls-20" points="158.55 0.15 94.14 14.94 152.36 42.8 158.55 0.15"/><path class="cls-21" d="M268.36,101.27l55.76-38.06-60.05-6.15-.88,42.75a11.35,11.35,0,0,1,5.17,1.46Z"/><path class="cls-22" d="M208,62.83,157.51,47.65l31,38.85a11.58,11.58,0,0,1,5.76-.85L208,62.83Z"/><polygon class="cls-23" points="212.03 60.3 260 54.35 224.02 7.12 212.03 60.3"/><polygon class="cls-24" points="206.24 59.3 161.21 1.81 155.11 43.92 206.24 59.3"/><path class="cls-19" d="M213.51,63l43.28,38.42a11.51,11.51,0,0,1,3.52-1.39l.88-42.95L213.51,63Z"/><path class="cls-25" d="M204.08,93.93l49.42,10.51a11.33,11.33,0,0,1,1-1.18l-44-39.05L197.22,86.37a11.53,11.53,0,0,1,6.86,7.56Z"/><polygon class="cls-26" points="163.45 0 209.44 58.71 221.53 5.08 163.45 0"/><path class="cls-27" d="M73.45,128.61l21.7,41.45,29.82-29a11.52,11.52,0,0,1-5-6.1l-43.41-9a11.65,11.65,0,0,1-3.06,2.66Z"/><path class="cls-28" d="M326.4,75.35,274.21,111v.3A11.47,11.47,0,0,1,268,121.46l15.55,32.32Z"/><path class="cls-29" d="M50.6,178.18l42-6.84L70.81,129.76a11.18,11.18,0,0,1-3.07.46l-17.14,48Z"/><polygon class="cls-30" points="344.33 117.18 330.2 74.39 287.4 152.8 344.33 117.18"/><path class="cls-31" d="M16,155.61,47.7,177.74l17.1-47.85a11.87,11.87,0,0,1-3-1.21L16,155.61Z"/><path class="cls-32" d="M154,157.36l-18-16a11.57,11.57,0,0,1-8.13.9L99.46,169.88,154,157.36Z"/><path class="cls-33" d="M215.17,173.64,281.46,156l-16.12-33.52a11.8,11.8,0,0,1-5,0l-45.15,51.12Z"/><path class="cls-34" d="M159.25,157.37,209,174.08l-14.8-65.58a11.51,11.51,0,0,1-3-.09l-31.94,49Z"/><path class="cls-35" d="M187.13,106.92l-44.93,25.2a11.44,11.44,0,0,1-3.77,7.58L156.74,156l31.58-48.42a10.32,10.32,0,0,1-1.19-.62Z"/><path class="cls-36" d="M197,107.85l14.74,65.34,45.68-51.73a11.48,11.48,0,0,1-5.5-6.3L201.79,104.5a11.52,11.52,0,0,1-4.8,3.35Z"/></g><g id="Name"><g class="cls-37"><path class="cls-38" d="M0,328.48V289.43a4,4,0,0,1,1.2-2.91,4,4,0,0,1,2.91-1.2,3.8,3.8,0,0,1,4,3.14,10.85,10.85,0,0,1,7.63-3.24,9.78,9.78,0,0,1,8.12,4.21q3.91-4.2,8.61-4.21a9.25,9.25,0,0,1,6.63,2.72,9.91,9.91,0,0,1,3,6.93l1.17,33.61a4.12,4.12,0,0,1-7,2.89A4.16,4.16,0,0,1,35,328.48l-1-32.29q-.11-2.64-1.62-2.64a2.71,2.71,0,0,0-1.72.73l-4.89,4.12v30.08a3.84,3.84,0,0,1-1.2,2.84,4.15,4.15,0,0,1-5.81,0,3.91,3.91,0,0,1-1.22-2.91V295.66c0-1.41-.61-2.11-1.81-2.11a2.35,2.35,0,0,0-1.6.64l-5.9,5v29.3a4,4,0,0,1-1.18,2.89,3.81,3.81,0,0,1-2.84,1.22,4.1,4.1,0,0,1-3-1.22A3.93,3.93,0,0,1,0,328.48Z"/><path class="cls-38" d="M103.06,300.16v17.39q0,5.54-5.21,10.24t-10.76,4.7H77.44q-5.62,0-10.77-4.77t-5.15-10.17V300.16q0-5.39,5-10.16t10.9-4.78h9.65q5.53-.09,10.76,4.61T103.06,300.16Zm-33.21.35v16.65a4.4,4.4,0,0,0,1.62,3.58l3.08,2.64a4.3,4.3,0,0,0,2.89.88H87a5.61,5.61,0,0,0,3.82-1.52l2.49-2.2a3.89,3.89,0,0,0,1.52-3.28V300.6A4.27,4.27,0,0,0,93.31,297l-2.89-2.3A5.17,5.17,0,0,0,87,293.45H78.47a6.37,6.37,0,0,0-4.31,1.32l-2.79,2.4A4.15,4.15,0,0,0,69.85,300.51Z"/><path class="cls-38" d="M122.21,328.48V289.43a4.09,4.09,0,0,1,1.21-3,4,4,0,0,1,5.82,0,4.09,4.09,0,0,1,1.2,3v5.15l6.71-5.73q4.17-3.53,8.14-3.53h6a12.39,12.39,0,0,1,12.35,12.34v2.21a4.17,4.17,0,0,1-1.2,3,4.11,4.11,0,0,1-7-2.89v-2.31a4.1,4.1,0,0,0-4.12-4.11H146a6.17,6.17,0,0,0-3.82,1.81L130.44,305.5v23a3.91,3.91,0,0,1-1.22,2.91,4,4,0,0,1-2.89,1.2,4.11,4.11,0,0,1-4.12-4.11Z"/><path class="cls-38" d="M201.57,293.55v34.93a3.91,3.91,0,0,1-1.23,2.91,4,4,0,0,1-2.89,1.2,4.09,4.09,0,0,1-3-1.2,3.91,3.91,0,0,1-1.23-2.91V293.55H189a4.11,4.11,0,0,1-4.11-4.12,4.17,4.17,0,0,1,1.1-2.86,3.8,3.8,0,0,1,3-1.25h4.31v-3.18a13.93,13.93,0,0,1,4.33-10.49,15,15,0,0,1,10.81-4.16h9.65a3.94,3.94,0,0,1,2.91,1.22,4.13,4.13,0,0,1,1.2,3,4.18,4.18,0,0,1-4.11,4.12h-9.65a7,7,0,0,0-4.88,1.76,5.9,5.9,0,0,0-1.93,4.56v3.18h8.23a3.79,3.79,0,0,1,2.89,1.18,4.14,4.14,0,0,1-2.89,7.05Z"/><path class="cls-38" d="M284.84,300.8v9.94a4.18,4.18,0,0,1-4.11,4.12h-29.1v2.4a4.44,4.44,0,0,0,1.81,3.57l2.4,2a6.22,6.22,0,0,0,3.73,1.52h21.16a4,4,0,0,1,2.89,1.2,4,4,0,0,1,0,5.81,4,4,0,0,1-2.86,1.22H259a12.56,12.56,0,0,1-4.53-.91A11.86,11.86,0,0,1,251,329.8l-3.67-3.24a10.47,10.47,0,0,1-2.87-3.82,10.77,10.77,0,0,1-1.15-4.5V299.38a11.43,11.43,0,0,1,1.25-4.36,11.26,11.26,0,0,1,3.16-4.26l3.43-2.7a11.64,11.64,0,0,1,7.49-2.74H270.2a11.89,11.89,0,0,1,8.22,3.63l3.09,2.93Q284.84,294.88,284.84,300.8Zm-33.11-.64v6.37h25V300.8a4.4,4.4,0,0,0-1.42-3.53l-2.4-2.1a5.51,5.51,0,0,0-3.33-1.52H259.22a5.25,5.25,0,0,0-3.47,1.32l-2.41,2A3.82,3.82,0,0,0,251.73,300.16Z"/><path class="cls-38" d="M345.43,300.8v9.94a4.18,4.18,0,0,1-4.11,4.12h-29.1v2.4a4.45,4.45,0,0,0,1.82,3.57l2.4,2a6.17,6.17,0,0,0,3.72,1.52h21.16a4,4,0,0,1,2.89,1.2,4,4,0,0,1,0,5.81,4,4,0,0,1-2.87,1.22h-21.7a12.56,12.56,0,0,1-4.53-.91,11.78,11.78,0,0,1-3.5-1.88l-3.68-3.24a10.34,10.34,0,0,1-2.86-3.82,10.62,10.62,0,0,1-1.15-4.5V299.38a13.83,13.83,0,0,1,4.4-8.62l3.43-2.7a11.69,11.69,0,0,1,7.5-2.74h11.56A11.91,11.91,0,0,1,339,289l3.08,2.93Q345.43,294.88,345.43,300.8Zm-33.11-.64v6.37h25V300.8a4.4,4.4,0,0,0-1.42-3.53l-2.4-2.1a5.51,5.51,0,0,0-3.33-1.52H319.82a5.25,5.25,0,0,0-3.48,1.32l-2.4,2A3.81,3.81,0,0,0,312.32,300.16Z"/></g></g><g id="Tagline"><g class="cls-37"><path class="cls-38" d="M44,373.83h4.24a5.08,5.08,0,0,1,1,.16l0-1.53a1.06,1.06,0,0,0-1.08-1.08H44a1.09,1.09,0,0,1-1.08-1.08,1.06,1.06,0,0,1,.32-.77,1,1,0,0,1,.76-.31H48.1a3.14,3.14,0,0,1,2.29.94,3.25,3.25,0,0,1,1,2.3l.27,8.09a1,1,0,0,1-.32.76,1.09,1.09,0,0,1-1.54,0,1,1,0,0,1-.33-.76l-1.82,1.08H44a3.26,3.26,0,0,1-3.27-3.27V377.1A3.28,3.28,0,0,1,44,373.83Zm5.4,4.21-.06-.91a1.11,1.11,0,0,0-.33-.78,1,1,0,0,0-.75-.3H44a1.08,1.08,0,0,0-1.09,1.08v1.2A1.11,1.11,0,0,0,44,379.41H47Z"/><path class="cls-38" d="M77.67,371.73l-3,1.91v6.91a1.08,1.08,0,0,1-2.16,0V370.3a1.09,1.09,0,0,1,.31-.78,1.05,1.05,0,0,1,1.53,0,1.1,1.1,0,0,1,.32.78V371l2-1.2a4.09,4.09,0,0,1,2.24-.63h1a3.08,3.08,0,0,1,2.23.92,3.13,3.13,0,0,1,1,2.25l.3,8.19a1,1,0,0,1-.31.75,1,1,0,0,1-.77.33,1.12,1.12,0,0,1-.75-.29,1.08,1.08,0,0,1-.33-.79L81,372.48a1,1,0,0,0-1.19-1.13h-1A2,2,0,0,0,77.67,371.73Z"/><path class="cls-38" d="M107.59,373.83h4.23a5.16,5.16,0,0,1,1,.16l0-1.53a1.06,1.06,0,0,0-1.08-1.08h-4.11a1.05,1.05,0,0,1-.76-.32,1,1,0,0,1-.32-.76,1.06,1.06,0,0,1,1.08-1.08h4.11a3.1,3.1,0,0,1,2.28.94,3.26,3.26,0,0,1,1,2.3l.27,8.09a1,1,0,0,1-.32.76,1.07,1.07,0,0,1-.76.32,1.1,1.1,0,0,1-.79-.32,1,1,0,0,1-.32-.76l-1.83,1.08h-3.65a3.26,3.26,0,0,1-3.27-3.27V377.1a3.28,3.28,0,0,1,3.27-3.27ZM113,378l-.07-.91a1.06,1.06,0,0,0-.32-.78,1,1,0,0,0-.76-.3h-4.26a1,1,0,0,0-.76.31,1.06,1.06,0,0,0-.32.77v1.2a1.09,1.09,0,0,0,1.08,1.08h3Z"/><path class="cls-38" d="M144.89,381.63h-6.53a1,1,0,0,1-.76-.33,1.1,1.1,0,0,1-.32-.78,1.07,1.07,0,0,1,.32-.76,1,1,0,0,1,.76-.32h2.16V366.7h-2.18a1.06,1.06,0,0,1-.77-.32,1,1,0,0,1-.31-.76,1.06,1.06,0,0,1,1.08-1.08h3.29a1.07,1.07,0,0,1,.76.32,1.05,1.05,0,0,1,.32.76v13.82h2.18a1.05,1.05,0,0,1,.76.32,1,1,0,0,1,.32.76,1.09,1.09,0,0,1-.31.78A1,1,0,0,1,144.89,381.63Z"/><path class="cls-38" d="M178.89,372.38l-5.82,13.17a1,1,0,0,1-1,.7h-3a1.08,1.08,0,0,1-.77-.3,1.06,1.06,0,0,1-.31-.78,1,1,0,0,1,.31-.75,1,1,0,0,1,.77-.31h2.31l1.48-3.44h-.53a1.09,1.09,0,0,1-1.05-.75L168,372.38V370.3a1,1,0,0,1,.31-.77,1,1,0,0,1,.74-.31,1.09,1.09,0,0,1,.78.31,1,1,0,0,1,.33.77v1.61l2.84,6.58h.75l2.94-6.56v-1.66a1,1,0,0,1,.33-.75,1.09,1.09,0,0,1,1.86.75Z"/><path class="cls-38" d="M207.38,381.63h-2.16a3.14,3.14,0,0,1-2.3-1,3.06,3.06,0,0,1-1-2.28v-7h-1.1a1,1,0,0,1-.77-.31,1,1,0,0,1-.31-.77,1.06,1.06,0,0,1,1.08-1.08H202v-2.65a1.06,1.06,0,0,1,.31-.77,1.09,1.09,0,0,1,.77-.31,1.06,1.06,0,0,1,.75.32,1,1,0,0,1,.33.76v2.65h4.35a1.11,1.11,0,0,1,1.08,1.08,1,1,0,0,1-.33.76,1,1,0,0,1-.75.32h-4.38v7a1,1,0,0,0,.33.75,1.07,1.07,0,0,0,.78.33h2.11a1.13,1.13,0,0,0,1.14-.94,1.11,1.11,0,0,1,1.1-.93,1,1,0,0,1,.77.32,1.1,1.1,0,0,1,.31.79,2.89,2.89,0,0,1-.92,2A3.14,3.14,0,0,1,207.38,381.63Z"/><path class="cls-38" d="M240.32,381.6h-6.58a1.08,1.08,0,1,1,0-2.16H236v-8.06h-2.19a1,1,0,0,1-.76-.32,1.07,1.07,0,0,1-.32-.76,1.1,1.1,0,0,1,.32-.78,1,1,0,0,1,.76-.33h3.29a1,1,0,0,1,.77.33,1.09,1.09,0,0,1,.31.78v9.14h2.16a1.09,1.09,0,0,1,.78.31,1,1,0,0,1,.33.77,1.08,1.08,0,0,1-1.08,1.08Zm-4.4-18h1.13a1.06,1.06,0,0,1,1.08,1.08v.92a1.09,1.09,0,0,1-.31.78,1,1,0,0,1-.77.33H235.9a1,1,0,0,1-.78-.34,1,1,0,0,1-.3-.74l0-.95a1.06,1.06,0,0,1,.32-.77A1,1,0,0,1,235.92,363.59Z"/><path class="cls-38" d="M273.23,381.63h-4.61a3.12,3.12,0,0,1-2.09-.74l-2.09-1.82a2.79,2.79,0,0,1-1-2.27V374a2.88,2.88,0,0,1,1.13-2.39l1.89-1.64a3.07,3.07,0,0,1,2-.74h4.85a1,1,0,0,1,.76.31,1.06,1.06,0,0,1,.32.77,1,1,0,0,1-.32.77,1,1,0,0,1-.76.31h-4.64a1.24,1.24,0,0,0-.84.35l-1.73,1.47a1.2,1.2,0,0,0-.43,1v2.63a.89.89,0,0,0,.34.72l1.9,1.62a1.36,1.36,0,0,0,.95.33h4.42a1,1,0,0,1,.76.31,1.09,1.09,0,0,1,0,1.53A1.06,1.06,0,0,1,273.23,381.63Z"/><path class="cls-38" d="M298.24,369.22h4.95a3.27,3.27,0,0,1,2.05.69,1.83,1.83,0,0,1,.88,1.34,1,1,0,0,1-.33.76,1,1,0,0,1-.72.29,1.24,1.24,0,0,1-.94-.46,1.2,1.2,0,0,0-.89-.46h-4.88q-.72,0-.72.6a.7.7,0,0,0,.48.64l5.74,2.55a3.28,3.28,0,0,1,1.43,1.24,3.33,3.33,0,0,1,.56,1.9,3.19,3.19,0,0,1-1,2.35,3.13,3.13,0,0,1-2.23,1h-4.37a3.57,3.57,0,0,1-2.11-.69c-.64-.45-1-.89-1-1.32a1.06,1.06,0,0,1,.32-.75,1.08,1.08,0,0,1,.82-.33,1.33,1.33,0,0,1,.88.46,1.83,1.83,0,0,0,1.35.47h4a1,1,0,0,0,.79-.37,1.21,1.21,0,0,0,.32-.84,1.1,1.1,0,0,0-.71-1.06l-5.8-2.61a2.87,2.87,0,0,1-1.29-1.08,2.65,2.65,0,0,1-.45-1.44,2.82,2.82,0,0,1,.8-2A2.62,2.62,0,0,1,298.24,369.22Z"/></g></g><g id="_" data-name="®"><path class="cls-38" d="M362.48,281.06a8.09,8.09,0,1,1-8.07-7.88A7.91,7.91,0,0,1,362.48,281.06Zm-14.16,0a6.09,6.09,0,0,0,6.14,6.28,6,6,0,0,0,6-6.24,6.07,6.07,0,1,0-12.14,0Zm4.85,4.12h-1.83v-7.87a16.32,16.32,0,0,1,3-.24,4.84,4.84,0,0,1,2.73.58,2.18,2.18,0,0,1,.77,1.73,2,2,0,0,1-1.63,1.82v.1a2.32,2.32,0,0,1,1.44,1.92,6,6,0,0,0,.57,2h-2a6.23,6.23,0,0,1-.63-1.92c-.14-.86-.62-1.24-1.63-1.24h-.86Zm0-4.46h.87c1,0,1.82-.34,1.82-1.15s-.53-1.2-1.68-1.2a5.09,5.09,0,0,0-1,.09Z"/></g></g></svg>